<svg xmlns="http://www.w3.org/2000/svg" width="23.289" height="28.932" viewBox="0 0 23.289 28.932">
  <path id="Icon" d="M9.8,26.342l.155.279.187.254.212.229.245.2.269.161.3.118.31.068.326.025.326-.025.318-.068.293-.118.269-.161.252-.2.212-.229.179-.254.155-.279Zm-7.171-3.6-.187.025-.171.059-.155.1-.138.135-.09.161-.065.178-.016.195.016.195.065.186.09.161.138.127.155.11.171.059.187.025H20.649l.187-.025.179-.059.155-.11.13-.127.1-.161.057-.186.024-.195-.024-.195-.057-.178-.1-.161-.13-.135-.155-.1-.179-.059-.187-.025ZM11.644,4.2l-.627.026-.619.093L9.8,4.444l-.57.186-.562.229-.538.279-.5.313-.481.364L6.706,6.2l-.415.44L5.908,7.1l-.35.508-.3.525L5,8.693l-.236.567-.163.6-.138.626-.073.635-.024.652v9.091h14.57V11.774l-.024-.652-.082-.635-.13-.626-.179-.6-.22-.567-.261-.559-.3-.525-.35-.508L17,6.645l-.416-.44-.448-.389-.481-.364-.513-.313-.53-.279-.554-.229-.57-.186-.6-.127-.611-.093L11.644,4.2Zm.163-2.946-.318.017-.3.068-.285.118-.269.144-.236.178-.22.22-.187.245-.155.279.595-.11.6-.059.611-.025.562.017.538.051.546.085.522.118-.139-.279-.187-.262-.22-.237-.252-.195-.269-.161-.293-.118-.318-.076-.326-.017Zm0-1.253.432.026.407.085.391.118L13.4.406l.35.22.31.254.285.3.253.322.212.356.171.381.122.406.081.423.595.288.578.339.546.381.522.415.5.449.456.482.424.516.383.559.342.576.318.609.261.626.22.66.179.669.122.694.09.711.024.728v9.091l.35.034.326.093.318.11.293.169.269.195.244.237.212.254.187.288.147.313.106.33.073.355.024.355-.024.373-.082.355-.106.339-.155.322-.187.288-.228.254-.244.237-.277.195-.31.161-.326.118-.342.076-.359.026H15.083l-.122.4-.179.364-.212.356-.245.313-.293.3-.31.245-.342.212-.367.178-.375.118-.407.085-.424.026-.416-.026-.407-.085L10.6,28.7l-.367-.178L9.9,28.314l-.318-.245-.285-.3-.245-.313L8.841,27.1l-.179-.364-.13-.4h-5.9l-.35-.026-.35-.076-.318-.118-.31-.161-.277-.195-.253-.237-.22-.254-.2-.288L.2,24.666.09,24.327l-.065-.355L0,23.6l.025-.355.065-.355.114-.33.147-.313.187-.288L.75,21.7l.244-.237.269-.195.293-.169.318-.11L2.2,20.9l.35-.034V11.774l.025-.711.081-.694.114-.677.171-.66.212-.643.253-.61L3.7,7.186l.334-.575L4.4,6.069l.407-.516.44-.482.464-.449.5-.415.53-.381.546-.339.578-.3.595-.271.09-.4.139-.389.179-.364.212-.339.253-.313L9.607.838,9.925.593l.326-.2L10.618.22,11,.1l.4-.076L11.807,0Z" fill="#3f305e"/>
</svg>
