<svg xmlns="http://www.w3.org/2000/svg" width="16.954" height="16.978" viewBox="0 0 16.954 16.978">
  <path id="Vector" d="M12.188,16.378a7.187,7.187,0,0,1-2.807-.624A14.5,14.5,0,0,1,6.55,14.125a23.428,23.428,0,0,1-2.657-2.268l0,0A23.121,23.121,0,0,1,1.629,9.2,14.713,14.713,0,0,1,.016,6.4,7.272,7.272,0,0,1-.6,3.582,4.677,4.677,0,0,1-.273,1.836,4.235,4.235,0,0,1,.775.309,2.889,2.889,0,0,1,2.832-.6a2.088,2.088,0,0,1,.895.2,1.883,1.883,0,0,1,.764.64L6.319,2.816a3.275,3.275,0,0,1,.38.668,1.823,1.823,0,0,1,.157.713,1.658,1.658,0,0,1-.248.863,3.276,3.276,0,0,1-.531.677l-.54.561.019.046a6.158,6.158,0,0,0,.643.871c.387.447.751.844,1.112,1.212.482.473.858.82,1.219,1.127a5.54,5.54,0,0,0,.888.641l.041.018L10,9.678a3,3,0,0,1,.695-.537,1.632,1.632,0,0,1,.855-.243,1.845,1.845,0,0,1,.708.147,3.632,3.632,0,0,1,.662.367l.01.007,2.609,1.852a1.8,1.8,0,0,1,.638.754l.008.019a2.224,2.224,0,0,1,.169.838A2.6,2.6,0,0,1,16.1,14a3.833,3.833,0,0,1-.634.951,4.13,4.13,0,0,1-1.511,1.083A4.57,4.57,0,0,1,12.188,16.378ZM4.739,11.007a22.22,22.22,0,0,0,2.517,2.149,13.3,13.3,0,0,0,2.6,1.495,6,6,0,0,0,2.337.528,3.381,3.381,0,0,0,1.308-.254,2.961,2.961,0,0,0,1.08-.78,2.65,2.65,0,0,0,.438-.658,1.406,1.406,0,0,0,.14-.6,1.012,1.012,0,0,0-.079-.382.6.6,0,0,0-.223-.245l-.006,0L12.241,10.4a2.453,2.453,0,0,0-.437-.245.674.674,0,0,0-.254-.058.455.455,0,0,0-.248.078l-.034.019a1.855,1.855,0,0,0-.421.334l-.6.594a1.034,1.034,0,0,1-.745.307,1.143,1.143,0,0,1-.408-.07l-.026-.01-.085-.038-.044-.02-.03-.012-.028-.015a6.647,6.647,0,0,1-1.124-.8c-.385-.327-.782-.694-1.287-1.189l-.008-.008C6.078,8.883,5.7,8.467,5.289,8l0-.005a7.107,7.107,0,0,1-.8-1.11l-.026-.047L4.44,6.785c0-.01-.009-.022-.015-.035-.013-.031-.027-.064-.041-.1l-.012-.032-.008-.033a1.315,1.315,0,0,1-.042-.327,1.024,1.024,0,0,1,.3-.735l.6-.628a2.118,2.118,0,0,0,.344-.431l.01-.017A.48.48,0,0,0,5.656,4.2a.647.647,0,0,0-.062-.245l0-.009a2.109,2.109,0,0,0-.247-.429L3.506.925A.69.69,0,0,0,3.22.687l-.008,0A.881.881,0,0,0,2.832.6a1.716,1.716,0,0,0-1.22.569L1.6,1.178a3.05,3.05,0,0,0-.761,1.1A3.487,3.487,0,0,0,.6,3.582a6.082,6.082,0,0,0,.521,2.347A13.506,13.506,0,0,0,2.6,8.5,21.906,21.906,0,0,0,4.739,11.007Z" transform="translate(0.6 0.6)" fill="#0a0a0a"/>
</svg>
