<svg xmlns="http://www.w3.org/2000/svg" width="24" height="24" viewBox="0 0 24 24">
  <g id="edit-2" transform="translate(-684 -252)">
    <path id="Vector" d="M11.934-.75h0A4.659,4.659,0,0,1,15.067.733a4.411,4.411,0,0,1,1.67,3.47,4.753,4.753,0,0,1-1.49,2.892L7.043,15.78a3.626,3.626,0,0,1-1.808.978H5.23l-3.22.55a2.808,2.808,0,0,1-.475.041,2.252,2.252,0,0,1-1.708-.733,2.4,2.4,0,0,1-.558-1.9l.37-3.242,0-.014A3.78,3.78,0,0,1,.507,9.616L8.718.924A4.472,4.472,0,0,1,11.934-.75ZM4.974,15.28a2.169,2.169,0,0,0,.965-.517l.009-.01,8.21-8.69A3.369,3.369,0,0,0,15.241,4.1a2.99,2.99,0,0,0-1.2-2.274A3.26,3.26,0,0,0,11.934.75a3.062,3.062,0,0,0-2.126,1.2L1.6,10.644a2.345,2.345,0,0,0-.471,1.008L.758,14.884a.929.929,0,0,0,.186.732.764.764,0,0,0,.591.234,1.309,1.309,0,0,0,.221-.02Z" transform="translate(687.997 254.161)" fill="#292d32"/>
    <path id="Vector-2" data-name="Vector" d="M5.451,5.9a.759.759,0,0,1-.076,0A6.883,6.883,0,0,1-.741.115.75.75,0,0,1-.115-.741a.75.75,0,0,1,.857.626A5.383,5.383,0,0,0,5.525,4.4a.75.75,0,0,1-.074,1.5Z" transform="translate(695.89 257.05)" fill="#292d32"/>
    <path id="Vector-3" data-name="Vector" d="M18,.75H0A.75.75,0,0,1-.75,0,.75.75,0,0,1,0-.75H18a.75.75,0,0,1,.75.75A.75.75,0,0,1,18,.75Z" transform="translate(687 274)" fill="#292d32"/>
    <path id="Vector-4" data-name="Vector" d="M0,0H24V24H0Z" transform="translate(684 252)" fill="none" opacity="0"/>
  </g>
</svg>
