<svg xmlns="http://www.w3.org/2000/svg" width="24" height="24" viewBox="0 0 24 24">
  <g id="sms" transform="translate(-556 -250)">
    <path id="Vector" d="M15,17.75H5A5.869,5.869,0,0,1,.865,16.362,5.686,5.686,0,0,1-.75,12V5A5.686,5.686,0,0,1,.865.638,5.869,5.869,0,0,1,5-.75H15A5.869,5.869,0,0,1,19.135.638,5.686,5.686,0,0,1,20.75,5v7a5.686,5.686,0,0,1-1.615,4.362A5.869,5.869,0,0,1,15,17.75ZM5,.75a4.442,4.442,0,0,0-3.115.987A4.271,4.271,0,0,0,.75,5v7a4.271,4.271,0,0,0,1.135,3.263A4.442,4.442,0,0,0,5,16.25H15a4.442,4.442,0,0,0,3.115-.987A4.271,4.271,0,0,0,19.25,12V5a4.271,4.271,0,0,0-1.135-3.263A4.442,4.442,0,0,0,15,.75Z" transform="translate(558 253.5)" fill="#a6bcd0"/>
    <path id="Vector-2" data-name="Vector" d="M4.995,3.865a3.761,3.761,0,0,1-2.342-.778L-.469.585A.75.75,0,0,1-.585-.469.75.75,0,0,1,.469-.585l3.12,2.5a2.4,2.4,0,0,0,2.814,0l3.129-2.5a.75.75,0,0,1,1.054.118A.75.75,0,0,1,10.468.586l-3.13,2.5A3.761,3.761,0,0,1,4.995,3.865Z" transform="translate(563 259)" fill="#a6bcd0"/>
    <path id="Vector-3" data-name="Vector" d="M0,0H24V24H0Z" transform="translate(556 250)" fill="none" opacity="0"/>
  </g>
</svg>
