<svg xmlns="http://www.w3.org/2000/svg" width="24" height="24" viewBox="0 0 24 24">
  <g id="eye-slash" transform="translate(-172 -188)">
    <path id="Vector" d="M3.58-.75A4.3,4.3,0,0,1,6.64.52a.75.75,0,0,1,0,1.061L1.58,6.64a.75.75,0,0,1-1.061,0A4.328,4.328,0,0,1,3.58-.75Zm1.4,1.87A2.83,2.83,0,0,0,1.12,4.979Z" transform="translate(180.42 196.42)" fill="#b9cada"/>
    <path id="Vector-2" data-name="Vector" d="M3.385,14.79a.747.747,0,0,1-.489-.181A15.031,15.031,0,0,1,.042,11.273a6.075,6.075,0,0,1,0-6C2.479,1.447,6.03-.75,9.785-.75a10.394,10.394,0,0,1,6.272,2.191.75.75,0,1,1-.9,1.2A8.907,8.907,0,0,0,9.785.75C6.553.75,3.464,2.694,1.308,6.083a4.576,4.576,0,0,0,0,4.384,13.535,13.535,0,0,0,2.567,3,.75.75,0,0,1-.489,1.319Z" transform="translate(174.215 191.73)" fill="#b9cada"/>
    <path id="Vector-3" data-name="Vector" d="M3.58,13.09a9.935,9.935,0,0,1-3.871-.8.75.75,0,0,1-.4-.982.75.75,0,0,1,.982-.4,8.444,8.444,0,0,0,3.289.681c3.232,0,6.321-1.944,8.477-5.333a4.576,4.576,0,0,0,0-4.384A15.351,15.351,0,0,0,11.046.47.75.75,0,0,1,11.16-.584a.75.75,0,0,1,1.054.114,16.825,16.825,0,0,1,1.109,1.538,6.075,6.075,0,0,1,0,6C10.886,10.893,7.335,13.09,3.58,13.09Z" transform="translate(180.42 195.93)" fill="#b9cada"/>
    <path id="Vector-4" data-name="Vector" d="M0,3.57a.75.75,0,0,1-.737-.614.75.75,0,0,1,.6-.874A2.818,2.818,0,0,0,2.082-.136a.75.75,0,0,1,.874-.6.75.75,0,0,1,.6.874A4.243,4.243,0,0,1,2.372,2.372,4.243,4.243,0,0,1,.136,3.558.755.755,0,0,1,0,3.57Z" transform="translate(184.69 200.7)" fill="#b9cada"/>
    <path id="Vector-5" data-name="Vector" d="M0,8.22A.748.748,0,0,1-.53,8a.75.75,0,0,1,0-1.061L6.94-.53A.75.75,0,0,1,8-.53.75.75,0,0,1,8,.53L.53,8A.748.748,0,0,1,0,8.22Z" transform="translate(174 202.53)" fill="#b9cada"/>
    <path id="Vector-6" data-name="Vector" d="M0,8.22A.748.748,0,0,1-.53,8a.75.75,0,0,1,0-1.061L6.94-.53A.75.75,0,0,1,8-.53.75.75,0,0,1,8,.53L.53,8A.748.748,0,0,1,0,8.22Z" transform="translate(186.53 190)" fill="#b9cada"/>
    <path id="Vector-7" data-name="Vector" d="M0,0H24V24H0Z" transform="translate(196 212) rotate(180)" fill="none" opacity="0"/>
  </g>
</svg>
