<svg xmlns="http://www.w3.org/2000/svg" width="18.3" height="18.3" viewBox="0 0 18.3 18.3">
  <g id="location" transform="translate(-428 -188)">
    <path id="Vector" d="M2.379,5.358A2.979,2.979,0,1,1,5.358,2.379,2.982,2.982,0,0,1,2.379,5.358ZM2.379.6A1.779,1.779,0,1,0,4.158,2.379,1.781,1.781,0,0,0,2.379.6Z" transform="translate(434.771 193.482)" fill="#fff"/>
    <path id="Vector-2" data-name="Vector" d="M6.573-.6A7.462,7.462,0,0,1,10.9.752,6.749,6.749,0,0,1,13.55,4.824c.935,4.13-1.558,7.579-3.814,9.746a4.56,4.56,0,0,1-6.329,0C1.154,12.4-1.335,8.944-.4,4.816A6.749,6.749,0,0,1,2.254.749,7.458,7.458,0,0,1,6.573-.6Zm0,15.246A3.338,3.338,0,0,0,8.9,13.7c2.034-1.953,4.287-5.033,3.476-8.616A5.737,5.737,0,0,0,6.573.6,5.736,5.736,0,0,0,.77,5.082C-.041,8.664,2.209,11.748,4.239,13.7A3.357,3.357,0,0,0,6.574,14.646Z" transform="translate(430.575 189.525)" fill="#fff"/>
    <path id="Vector-3" data-name="Vector" d="M0,0H18.3V18.3H0Z" transform="translate(446.3 206.3) rotate(180)" fill="none" opacity="0"/>
  </g>
</svg>
