<svg xmlns="http://www.w3.org/2000/svg" width="24" height="24" viewBox="0 0 24 24">
  <g id="lock" transform="translate(-172 -252)">
    <path id="Vector" d="M12,8.75A.75.75,0,0,1,11.25,8V6C11.25,2.849,10.357.75,6,.75S.75,2.849.75,6V8A.75.75,0,0,1,0,8.75.75.75,0,0,1-.75,8V6C-.75,3.1-.05-.75,6-.75S12.75,3.1,12.75,6V8A.75.75,0,0,1,12,8.75Z" transform="translate(178 254)" fill="#a6bcd0"/>
    <path id="Vector-2" data-name="Vector" d="M2.5-.75A3.25,3.25,0,1,1-.75,2.5,3.254,3.254,0,0,1,2.5-.75Zm0,5A1.75,1.75,0,1,0,.75,2.5,1.752,1.752,0,0,0,2.5,4.25Z" transform="translate(181.5 265.5)" fill="#a6bcd0"/>
    <path id="Vector-3" data-name="Vector" d="M15,12.75H5c-2.352,0-3.664-.353-4.53-1.22S-.75,9.351-.75,7V5C-.75,2.648-.4,1.336.47.47S2.648-.75,5-.75H15c2.351,0,3.664.353,4.53,1.22S20.75,2.648,20.75,5V7c0,2.351-.353,3.664-1.22,4.53S17.351,12.75,15,12.75ZM5,.75c-1.885,0-2.923.233-3.47.78S.75,3.115.75,5V7c0,1.885.233,2.923.78,3.47s1.585.78,3.47.78H15c1.885,0,2.923-.233,3.47-.78s.78-1.585.78-3.47V5c0-1.885-.233-2.923-.78-3.47S16.885.75,15,.75Z" transform="translate(174 262)" fill="#a6bcd0"/>
    <path id="Vector-4" data-name="Vector" d="M0,0H24V24H0Z" transform="translate(196 276) rotate(180)" fill="none" opacity="0"/>
  </g>
</svg>
