<svg xmlns="http://www.w3.org/2000/svg" width="28.997" height="25.811" viewBox="0 0 28.997 25.811">
  <g id="icon-store" transform="translate(0.65 0.65)">
    <path id="path" d="M153.831,782.123h-3.912a.65.65,0,0,1-.65-.65v-8.94h-4.378v8.94a.65.65,0,0,1-.65.65H128.973a.65.65,0,0,1-.65-.65v-8.94h-.769a.65.65,0,0,1-.65-.65v-2.84a.65.65,0,0,1,.037-.215l2.492-7.1a.65.65,0,0,1,.613-.435h22.713a.65.65,0,0,1,.613.435l2.492,7.1a.65.65,0,0,1,.037.215v2.84a.65.65,0,0,1-.65.65h-.771v8.94A.65.65,0,0,1,153.831,782.123Zm-3.262-1.3h2.612v-8.94a.65.65,0,0,1,.65-.65h.771v-2.079l-2.3-6.558H130.507l-2.3,6.558v2.079h.769a.65.65,0,0,1,.65.65v8.94h13.968v-8.94a.65.65,0,0,1,.65-.65h5.678a.65.65,0,0,1,.65.65Zm-10.24-2.611h-7.445a.65.65,0,0,1-.65-.65v-5.678a.65.65,0,0,1,.65-.65h7.445a.65.65,0,0,1,.65.65v5.678A.65.65,0,0,1,140.33,778.211Zm-6.795-1.3h6.145v-4.378h-6.145Z" transform="translate(-127.554 -756.962)" fill="#fff"/>
    <path id="path-2" data-name="path" d="M0-.65H22.713a.65.65,0,0,1,.65.65V2.839a.65.65,0,0,1-.65.65H0a.65.65,0,0,1-.65-.65V0A.65.65,0,0,1,0-.65ZM22.063.65H.65V2.189H22.063Z" transform="translate(2.492)" fill="#fff"/>
  </g>
</svg>
