<svg xmlns="http://www.w3.org/2000/svg" xmlns:xlink="http://www.w3.org/1999/xlink" width="28.71" height="23.924" viewBox="0 0 28.71 23.924">
  <defs>
    <clipPath id="clip-path">
      <path id="Combined_Shape" data-name="Combined Shape" d="M27.513,23.924a1.2,1.2,0,0,1-1.2-1.2V20.337a3.587,3.587,0,0,0-2.691-3.472,1.2,1.2,0,1,1,.6-2.317,5.982,5.982,0,0,1,4.486,5.788v2.392A1.2,1.2,0,0,1,27.513,23.924Zm-7.178,0a1.2,1.2,0,0,1-1.2-1.2V20.336a3.593,3.593,0,0,0-3.589-3.588H5.982a3.593,3.593,0,0,0-3.589,3.588v2.392a1.2,1.2,0,0,1-2.392,0V20.336a5.988,5.988,0,0,1,5.982-5.982H15.55a5.988,5.988,0,0,1,5.982,5.982v2.392A1.2,1.2,0,0,1,20.336,23.924Zm-9.57-11.962a5.981,5.981,0,1,1,5.982-5.98A5.988,5.988,0,0,1,10.766,11.962Zm0-9.57a3.589,3.589,0,1,0,3.588,3.589A3.593,3.593,0,0,0,10.766,2.392Zm8.373,9.427a1.2,1.2,0,0,1-.3-2.356,3.588,3.588,0,0,0,0-6.953A1.2,1.2,0,1,1,19.436.193a5.981,5.981,0,0,1,0,11.588A1.178,1.178,0,0,1,19.139,11.819Z" fill="#0c284c"/>
    </clipPath>
  </defs>
  <g id="Group_1560" data-name="Group 1560" transform="translate(-367.261 -869.871)">
    <g id="Left_Icon" data-name="Left Icon" transform="translate(367.261 869.871)">
      <g id="Group_13" data-name="Group 13" transform="translate(0 0)">
        <path id="Combined_Shape-2" data-name="Combined Shape" d="M27.513,23.924a1.2,1.2,0,0,1-1.2-1.2V20.337a3.587,3.587,0,0,0-2.691-3.472,1.2,1.2,0,1,1,.6-2.317,5.982,5.982,0,0,1,4.486,5.788v2.392A1.2,1.2,0,0,1,27.513,23.924Zm-7.178,0a1.2,1.2,0,0,1-1.2-1.2V20.336a3.593,3.593,0,0,0-3.589-3.588H5.982a3.593,3.593,0,0,0-3.589,3.588v2.392a1.2,1.2,0,0,1-2.392,0V20.336a5.988,5.988,0,0,1,5.982-5.982H15.55a5.988,5.988,0,0,1,5.982,5.982v2.392A1.2,1.2,0,0,1,20.336,23.924Zm-9.57-11.962a5.981,5.981,0,1,1,5.982-5.98A5.988,5.988,0,0,1,10.766,11.962Zm0-9.57a3.589,3.589,0,1,0,3.588,3.589A3.593,3.593,0,0,0,10.766,2.392Zm8.373,9.427a1.2,1.2,0,0,1-.3-2.356,3.588,3.588,0,0,0,0-6.953A1.2,1.2,0,1,1,19.436.193a5.981,5.981,0,0,1,0,11.588A1.178,1.178,0,0,1,19.139,11.819Z" fill="#0c284c"/>
        <g id="Mask_Group_13" data-name="Mask Group 13" clip-path="url(#clip-path)">
          <rect id="_Icon_Color" data-name="↳ Icon Color" width="28.709" height="28.709" transform="translate(0 -2.392)" fill="#0c284c"/>
        </g>
      </g>
    </g>
  </g>
</svg>
