<svg xmlns="http://www.w3.org/2000/svg" width="17.3" height="17.3" viewBox="0 0 17.3 17.3">
  <g id="user" transform="translate(-108 -188)">
    <path id="Vector" d="M3.6-.6A4.2,4.2,0,1,1-.6,3.6,4.209,4.209,0,0,1,3.6-.6Zm0,7.208a3,3,0,1,0-3-3A3.008,3.008,0,0,0,3.6,6.608Z" transform="translate(113.046 189.442)" fill="#fff"/>
    <path id="Vector-2" data-name="Vector" d="M12.384,5.646a.6.6,0,0,1-.6-.6C11.784,2.594,9.275.6,6.192.6S.6,2.594.6,5.046a.6.6,0,0,1-.6.6.6.6,0,0,1-.6-.6A5.184,5.184,0,0,1,1.436,1.012,7.525,7.525,0,0,1,6.192-.6a7.525,7.525,0,0,1,4.756,1.612,5.184,5.184,0,0,1,2.036,4.034A.6.6,0,0,1,12.384,5.646Z" transform="translate(110.458 198.813)" fill="#fff"/>
    <path id="Vector-3" data-name="Vector" d="M0,0H17.3V17.3H0Z" transform="translate(108 188)" fill="none" opacity="0"/>
  </g>
</svg>
